%TF.GenerationSoftware,KiCad,Pcbnew,(6.0.1)*%
%TF.CreationDate,2022-04-25T15:26:44-04:00*%
%TF.ProjectId,Driver,44726976-6572-42e6-9b69-6361645f7063,rev?*%
%TF.SameCoordinates,Original*%
%TF.FileFunction,Copper,L1,Top*%
%TF.FilePolarity,Positive*%
%FSLAX46Y46*%
G04 Gerber Fmt 4.6, Leading zero omitted, Abs format (unit mm)*
G04 Created by KiCad (PCBNEW (6.0.1)) date 2022-04-25 15:26:44*
%MOMM*%
%LPD*%
G01*
G04 APERTURE LIST*
%ADD10C,0.100000*%
%ADD11C,0.150000*%
%ADD12C,0.300000*%
%ADD13C,0.400000*%
%TA.AperFunction,Profile*%
%ADD14C,0.100000*%
%TD*%
%TA.AperFunction,ComponentPad*%
%ADD15R,2.000000X2.000000*%
%TD*%
%TA.AperFunction,ComponentPad*%
%ADD16O,2.000000X2.000000*%
%TD*%
%TA.AperFunction,ComponentPad*%
%ADD17R,2.600000X2.600000*%
%TD*%
%TA.AperFunction,ComponentPad*%
%ADD18C,2.600000*%
%TD*%
%TA.AperFunction,ComponentPad*%
%ADD19R,1.700000X1.700000*%
%TD*%
%TA.AperFunction,ComponentPad*%
%ADD20O,1.700000X1.700000*%
%TD*%
%TA.AperFunction,ComponentPad*%
%ADD21C,2.400000*%
%TD*%
%TA.AperFunction,ComponentPad*%
%ADD22O,2.400000X2.400000*%
%TD*%
%TA.AperFunction,SMDPad,CuDef*%
%ADD23R,0.450000X1.750000*%
%TD*%
%TA.AperFunction,Conductor*%
%ADD24C,0.250000*%
%TD*%
G04 APERTURE END LIST*
D10*
D11*
X177002200Y-166007200D02*
X177002200Y-198007200D01*
X285002200Y-198007200D01*
X285002200Y-166007200D01*
X177002200Y-166007200D01*
D10*
D11*
X10000000Y-10000000D02*
X10000000Y-200007200D01*
X287002200Y-200007200D01*
X287002200Y-10000000D01*
X10000000Y-10000000D01*
D10*
D11*
X12000000Y-12000000D02*
X12000000Y-198007200D01*
X285002200Y-198007200D01*
X285002200Y-12000000D01*
X12000000Y-12000000D01*
D10*
D11*
X60000000Y-12000000D02*
X60000000Y-10000000D01*
D10*
D11*
X110000000Y-12000000D02*
X110000000Y-10000000D01*
D10*
D11*
X160000000Y-12000000D02*
X160000000Y-10000000D01*
D10*
D11*
X210000000Y-12000000D02*
X210000000Y-10000000D01*
D10*
D11*
X260000000Y-12000000D02*
X260000000Y-10000000D01*
D10*
D11*
X36065476Y-11588095D02*
X35322619Y-11588095D01*
X35694047Y-11588095D02*
X35694047Y-10288095D01*
X35570238Y-10473809D01*
X35446428Y-10597619D01*
X35322619Y-10659523D01*
D10*
D11*
X85322619Y-10411904D02*
X85384523Y-10350000D01*
X85508333Y-10288095D01*
X85817857Y-10288095D01*
X85941666Y-10350000D01*
X86003571Y-10411904D01*
X86065476Y-10535714D01*
X86065476Y-10659523D01*
X86003571Y-10845238D01*
X85260714Y-11588095D01*
X86065476Y-11588095D01*
D10*
D11*
X135260714Y-10288095D02*
X136065476Y-10288095D01*
X135632142Y-10783333D01*
X135817857Y-10783333D01*
X135941666Y-10845238D01*
X136003571Y-10907142D01*
X136065476Y-11030952D01*
X136065476Y-11340476D01*
X136003571Y-11464285D01*
X135941666Y-11526190D01*
X135817857Y-11588095D01*
X135446428Y-11588095D01*
X135322619Y-11526190D01*
X135260714Y-11464285D01*
D10*
D11*
X185941666Y-10721428D02*
X185941666Y-11588095D01*
X185632142Y-10226190D02*
X185322619Y-11154761D01*
X186127380Y-11154761D01*
D10*
D11*
X236003571Y-10288095D02*
X235384523Y-10288095D01*
X235322619Y-10907142D01*
X235384523Y-10845238D01*
X235508333Y-10783333D01*
X235817857Y-10783333D01*
X235941666Y-10845238D01*
X236003571Y-10907142D01*
X236065476Y-11030952D01*
X236065476Y-11340476D01*
X236003571Y-11464285D01*
X235941666Y-11526190D01*
X235817857Y-11588095D01*
X235508333Y-11588095D01*
X235384523Y-11526190D01*
X235322619Y-11464285D01*
D10*
D11*
X285941666Y-10288095D02*
X285694047Y-10288095D01*
X285570238Y-10350000D01*
X285508333Y-10411904D01*
X285384523Y-10597619D01*
X285322619Y-10845238D01*
X285322619Y-11340476D01*
X285384523Y-11464285D01*
X285446428Y-11526190D01*
X285570238Y-11588095D01*
X285817857Y-11588095D01*
X285941666Y-11526190D01*
X286003571Y-11464285D01*
X286065476Y-11340476D01*
X286065476Y-11030952D01*
X286003571Y-10907142D01*
X285941666Y-10845238D01*
X285817857Y-10783333D01*
X285570238Y-10783333D01*
X285446428Y-10845238D01*
X285384523Y-10907142D01*
X285322619Y-11030952D01*
D10*
D11*
X60000000Y-198007200D02*
X60000000Y-200007200D01*
D10*
D11*
X110000000Y-198007200D02*
X110000000Y-200007200D01*
D10*
D11*
X160000000Y-198007200D02*
X160000000Y-200007200D01*
D10*
D11*
X210000000Y-198007200D02*
X210000000Y-200007200D01*
D10*
D11*
X260000000Y-198007200D02*
X260000000Y-200007200D01*
D10*
D11*
X36065476Y-199595295D02*
X35322619Y-199595295D01*
X35694047Y-199595295D02*
X35694047Y-198295295D01*
X35570238Y-198481009D01*
X35446428Y-198604819D01*
X35322619Y-198666723D01*
D10*
D11*
X85322619Y-198419104D02*
X85384523Y-198357200D01*
X85508333Y-198295295D01*
X85817857Y-198295295D01*
X85941666Y-198357200D01*
X86003571Y-198419104D01*
X86065476Y-198542914D01*
X86065476Y-198666723D01*
X86003571Y-198852438D01*
X85260714Y-199595295D01*
X86065476Y-199595295D01*
D10*
D11*
X135260714Y-198295295D02*
X136065476Y-198295295D01*
X135632142Y-198790533D01*
X135817857Y-198790533D01*
X135941666Y-198852438D01*
X136003571Y-198914342D01*
X136065476Y-199038152D01*
X136065476Y-199347676D01*
X136003571Y-199471485D01*
X135941666Y-199533390D01*
X135817857Y-199595295D01*
X135446428Y-199595295D01*
X135322619Y-199533390D01*
X135260714Y-199471485D01*
D10*
D11*
X185941666Y-198728628D02*
X185941666Y-199595295D01*
X185632142Y-198233390D02*
X185322619Y-199161961D01*
X186127380Y-199161961D01*
D10*
D11*
X236003571Y-198295295D02*
X235384523Y-198295295D01*
X235322619Y-198914342D01*
X235384523Y-198852438D01*
X235508333Y-198790533D01*
X235817857Y-198790533D01*
X235941666Y-198852438D01*
X236003571Y-198914342D01*
X236065476Y-199038152D01*
X236065476Y-199347676D01*
X236003571Y-199471485D01*
X235941666Y-199533390D01*
X235817857Y-199595295D01*
X235508333Y-199595295D01*
X235384523Y-199533390D01*
X235322619Y-199471485D01*
D10*
D11*
X285941666Y-198295295D02*
X285694047Y-198295295D01*
X285570238Y-198357200D01*
X285508333Y-198419104D01*
X285384523Y-198604819D01*
X285322619Y-198852438D01*
X285322619Y-199347676D01*
X285384523Y-199471485D01*
X285446428Y-199533390D01*
X285570238Y-199595295D01*
X285817857Y-199595295D01*
X285941666Y-199533390D01*
X286003571Y-199471485D01*
X286065476Y-199347676D01*
X286065476Y-199038152D01*
X286003571Y-198914342D01*
X285941666Y-198852438D01*
X285817857Y-198790533D01*
X285570238Y-198790533D01*
X285446428Y-198852438D01*
X285384523Y-198914342D01*
X285322619Y-199038152D01*
D10*
D11*
X10000000Y-60000000D02*
X12000000Y-60000000D01*
D10*
D11*
X10000000Y-110000000D02*
X12000000Y-110000000D01*
D10*
D11*
X10000000Y-160000000D02*
X12000000Y-160000000D01*
D10*
D11*
X10690476Y-35216666D02*
X11309523Y-35216666D01*
X10566666Y-35588095D02*
X11000000Y-34288095D01*
X11433333Y-35588095D01*
D10*
D11*
X11092857Y-84907142D02*
X11278571Y-84969047D01*
X11340476Y-85030952D01*
X11402380Y-85154761D01*
X11402380Y-85340476D01*
X11340476Y-85464285D01*
X11278571Y-85526190D01*
X11154761Y-85588095D01*
X10659523Y-85588095D01*
X10659523Y-84288095D01*
X11092857Y-84288095D01*
X11216666Y-84350000D01*
X11278571Y-84411904D01*
X11340476Y-84535714D01*
X11340476Y-84659523D01*
X11278571Y-84783333D01*
X11216666Y-84845238D01*
X11092857Y-84907142D01*
X10659523Y-84907142D01*
D10*
D11*
X11402380Y-135464285D02*
X11340476Y-135526190D01*
X11154761Y-135588095D01*
X11030952Y-135588095D01*
X10845238Y-135526190D01*
X10721428Y-135402380D01*
X10659523Y-135278571D01*
X10597619Y-135030952D01*
X10597619Y-134845238D01*
X10659523Y-134597619D01*
X10721428Y-134473809D01*
X10845238Y-134350000D01*
X11030952Y-134288095D01*
X11154761Y-134288095D01*
X11340476Y-134350000D01*
X11402380Y-134411904D01*
D10*
D11*
X10659523Y-185588095D02*
X10659523Y-184288095D01*
X10969047Y-184288095D01*
X11154761Y-184350000D01*
X11278571Y-184473809D01*
X11340476Y-184597619D01*
X11402380Y-184845238D01*
X11402380Y-185030952D01*
X11340476Y-185278571D01*
X11278571Y-185402380D01*
X11154761Y-185526190D01*
X10969047Y-185588095D01*
X10659523Y-185588095D01*
D10*
D11*
X287002200Y-60000000D02*
X285002200Y-60000000D01*
D10*
D11*
X287002200Y-110000000D02*
X285002200Y-110000000D01*
D10*
D11*
X287002200Y-160000000D02*
X285002200Y-160000000D01*
D10*
D11*
X285692676Y-35216666D02*
X286311723Y-35216666D01*
X285568866Y-35588095D02*
X286002200Y-34288095D01*
X286435533Y-35588095D01*
D10*
D11*
X286095057Y-84907142D02*
X286280771Y-84969047D01*
X286342676Y-85030952D01*
X286404580Y-85154761D01*
X286404580Y-85340476D01*
X286342676Y-85464285D01*
X286280771Y-85526190D01*
X286156961Y-85588095D01*
X285661723Y-85588095D01*
X285661723Y-84288095D01*
X286095057Y-84288095D01*
X286218866Y-84350000D01*
X286280771Y-84411904D01*
X286342676Y-84535714D01*
X286342676Y-84659523D01*
X286280771Y-84783333D01*
X286218866Y-84845238D01*
X286095057Y-84907142D01*
X285661723Y-84907142D01*
D10*
D11*
X286404580Y-135464285D02*
X286342676Y-135526190D01*
X286156961Y-135588095D01*
X286033152Y-135588095D01*
X285847438Y-135526190D01*
X285723628Y-135402380D01*
X285661723Y-135278571D01*
X285599819Y-135030952D01*
X285599819Y-134845238D01*
X285661723Y-134597619D01*
X285723628Y-134473809D01*
X285847438Y-134350000D01*
X286033152Y-134288095D01*
X286156961Y-134288095D01*
X286342676Y-134350000D01*
X286404580Y-134411904D01*
D10*
D11*
X285661723Y-185588095D02*
X285661723Y-184288095D01*
X285971247Y-184288095D01*
X286156961Y-184350000D01*
X286280771Y-184473809D01*
X286342676Y-184597619D01*
X286404580Y-184845238D01*
X286404580Y-185030952D01*
X286342676Y-185278571D01*
X286280771Y-185402380D01*
X286156961Y-185526190D01*
X285971247Y-185588095D01*
X285661723Y-185588095D01*
D10*
D11*
X200434342Y-193785771D02*
X200434342Y-192285771D01*
X200791485Y-192285771D01*
X201005771Y-192357200D01*
X201148628Y-192500057D01*
X201220057Y-192642914D01*
X201291485Y-192928628D01*
X201291485Y-193142914D01*
X201220057Y-193428628D01*
X201148628Y-193571485D01*
X201005771Y-193714342D01*
X200791485Y-193785771D01*
X200434342Y-193785771D01*
X202577200Y-193785771D02*
X202577200Y-193000057D01*
X202505771Y-192857200D01*
X202362914Y-192785771D01*
X202077200Y-192785771D01*
X201934342Y-192857200D01*
X202577200Y-193714342D02*
X202434342Y-193785771D01*
X202077200Y-193785771D01*
X201934342Y-193714342D01*
X201862914Y-193571485D01*
X201862914Y-193428628D01*
X201934342Y-193285771D01*
X202077200Y-193214342D01*
X202434342Y-193214342D01*
X202577200Y-193142914D01*
X203077200Y-192785771D02*
X203648628Y-192785771D01*
X203291485Y-192285771D02*
X203291485Y-193571485D01*
X203362914Y-193714342D01*
X203505771Y-193785771D01*
X203648628Y-193785771D01*
X204720057Y-193714342D02*
X204577200Y-193785771D01*
X204291485Y-193785771D01*
X204148628Y-193714342D01*
X204077200Y-193571485D01*
X204077200Y-193000057D01*
X204148628Y-192857200D01*
X204291485Y-192785771D01*
X204577200Y-192785771D01*
X204720057Y-192857200D01*
X204791485Y-193000057D01*
X204791485Y-193142914D01*
X204077200Y-193285771D01*
X205434342Y-193642914D02*
X205505771Y-193714342D01*
X205434342Y-193785771D01*
X205362914Y-193714342D01*
X205434342Y-193642914D01*
X205434342Y-193785771D01*
X205434342Y-192857200D02*
X205505771Y-192928628D01*
X205434342Y-193000057D01*
X205362914Y-192928628D01*
X205434342Y-192857200D01*
X205434342Y-193000057D01*
D10*
D11*
X177002200Y-194507200D02*
X285002200Y-194507200D01*
D10*
D11*
X178434342Y-196585771D02*
X178434342Y-195085771D01*
X179291485Y-196585771D02*
X178648628Y-195728628D01*
X179291485Y-195085771D02*
X178434342Y-195942914D01*
X179934342Y-196585771D02*
X179934342Y-195585771D01*
X179934342Y-195085771D02*
X179862914Y-195157200D01*
X179934342Y-195228628D01*
X180005771Y-195157200D01*
X179934342Y-195085771D01*
X179934342Y-195228628D01*
X181505771Y-196442914D02*
X181434342Y-196514342D01*
X181220057Y-196585771D01*
X181077200Y-196585771D01*
X180862914Y-196514342D01*
X180720057Y-196371485D01*
X180648628Y-196228628D01*
X180577200Y-195942914D01*
X180577200Y-195728628D01*
X180648628Y-195442914D01*
X180720057Y-195300057D01*
X180862914Y-195157200D01*
X181077200Y-195085771D01*
X181220057Y-195085771D01*
X181434342Y-195157200D01*
X181505771Y-195228628D01*
X182791485Y-196585771D02*
X182791485Y-195800057D01*
X182720057Y-195657200D01*
X182577200Y-195585771D01*
X182291485Y-195585771D01*
X182148628Y-195657200D01*
X182791485Y-196514342D02*
X182648628Y-196585771D01*
X182291485Y-196585771D01*
X182148628Y-196514342D01*
X182077200Y-196371485D01*
X182077200Y-196228628D01*
X182148628Y-196085771D01*
X182291485Y-196014342D01*
X182648628Y-196014342D01*
X182791485Y-195942914D01*
X184148628Y-196585771D02*
X184148628Y-195085771D01*
X184148628Y-196514342D02*
X184005771Y-196585771D01*
X183720057Y-196585771D01*
X183577200Y-196514342D01*
X183505771Y-196442914D01*
X183434342Y-196300057D01*
X183434342Y-195871485D01*
X183505771Y-195728628D01*
X183577200Y-195657200D01*
X183720057Y-195585771D01*
X184005771Y-195585771D01*
X184148628Y-195657200D01*
X186005771Y-195800057D02*
X186505771Y-195800057D01*
X186720057Y-196585771D02*
X186005771Y-196585771D01*
X186005771Y-195085771D01*
X186720057Y-195085771D01*
X187362914Y-196442914D02*
X187434342Y-196514342D01*
X187362914Y-196585771D01*
X187291485Y-196514342D01*
X187362914Y-196442914D01*
X187362914Y-196585771D01*
X188077200Y-196585771D02*
X188077200Y-195085771D01*
X188434342Y-195085771D01*
X188648628Y-195157200D01*
X188791485Y-195300057D01*
X188862914Y-195442914D01*
X188934342Y-195728628D01*
X188934342Y-195942914D01*
X188862914Y-196228628D01*
X188791485Y-196371485D01*
X188648628Y-196514342D01*
X188434342Y-196585771D01*
X188077200Y-196585771D01*
X189577200Y-196442914D02*
X189648628Y-196514342D01*
X189577200Y-196585771D01*
X189505771Y-196514342D01*
X189577200Y-196442914D01*
X189577200Y-196585771D01*
X190220057Y-196157200D02*
X190934342Y-196157200D01*
X190077200Y-196585771D02*
X190577200Y-195085771D01*
X191077200Y-196585771D01*
X191577200Y-196442914D02*
X191648628Y-196514342D01*
X191577200Y-196585771D01*
X191505771Y-196514342D01*
X191577200Y-196442914D01*
X191577200Y-196585771D01*
X194577200Y-196585771D02*
X194577200Y-195085771D01*
X194720057Y-196014342D02*
X195148628Y-196585771D01*
X195148628Y-195585771D02*
X194577200Y-196157200D01*
X195791485Y-196585771D02*
X195791485Y-195585771D01*
X195791485Y-195085771D02*
X195720057Y-195157200D01*
X195791485Y-195228628D01*
X195862914Y-195157200D01*
X195791485Y-195085771D01*
X195791485Y-195228628D01*
X197148628Y-196514342D02*
X197005771Y-196585771D01*
X196720057Y-196585771D01*
X196577200Y-196514342D01*
X196505771Y-196442914D01*
X196434342Y-196300057D01*
X196434342Y-195871485D01*
X196505771Y-195728628D01*
X196577200Y-195657200D01*
X196720057Y-195585771D01*
X197005771Y-195585771D01*
X197148628Y-195657200D01*
X198434342Y-196585771D02*
X198434342Y-195800057D01*
X198362914Y-195657200D01*
X198220057Y-195585771D01*
X197934342Y-195585771D01*
X197791485Y-195657200D01*
X198434342Y-196514342D02*
X198291485Y-196585771D01*
X197934342Y-196585771D01*
X197791485Y-196514342D01*
X197720057Y-196371485D01*
X197720057Y-196228628D01*
X197791485Y-196085771D01*
X197934342Y-196014342D01*
X198291485Y-196014342D01*
X198434342Y-195942914D01*
X199791485Y-196585771D02*
X199791485Y-195085771D01*
X199791485Y-196514342D02*
X199648628Y-196585771D01*
X199362914Y-196585771D01*
X199220057Y-196514342D01*
X199148628Y-196442914D01*
X199077200Y-196300057D01*
X199077200Y-195871485D01*
X199148628Y-195728628D01*
X199220057Y-195657200D01*
X199362914Y-195585771D01*
X199648628Y-195585771D01*
X199791485Y-195657200D01*
X202077200Y-197157200D02*
X202005771Y-197085771D01*
X201862914Y-196871485D01*
X201791485Y-196728628D01*
X201720057Y-196514342D01*
X201648628Y-196157200D01*
X201648628Y-195871485D01*
X201720057Y-195514342D01*
X201791485Y-195300057D01*
X201862914Y-195157200D01*
X202005771Y-194942914D01*
X202077200Y-194871485D01*
X203291485Y-195085771D02*
X203005771Y-195085771D01*
X202862914Y-195157200D01*
X202791485Y-195228628D01*
X202648628Y-195442914D01*
X202577200Y-195728628D01*
X202577200Y-196300057D01*
X202648628Y-196442914D01*
X202720057Y-196514342D01*
X202862914Y-196585771D01*
X203148628Y-196585771D01*
X203291485Y-196514342D01*
X203362914Y-196442914D01*
X203434342Y-196300057D01*
X203434342Y-195942914D01*
X203362914Y-195800057D01*
X203291485Y-195728628D01*
X203148628Y-195657200D01*
X202862914Y-195657200D01*
X202720057Y-195728628D01*
X202648628Y-195800057D01*
X202577200Y-195942914D01*
X204077200Y-196442914D02*
X204148628Y-196514342D01*
X204077200Y-196585771D01*
X204005771Y-196514342D01*
X204077200Y-196442914D01*
X204077200Y-196585771D01*
X205077200Y-195085771D02*
X205220057Y-195085771D01*
X205362914Y-195157200D01*
X205434342Y-195228628D01*
X205505771Y-195371485D01*
X205577200Y-195657200D01*
X205577200Y-196014342D01*
X205505771Y-196300057D01*
X205434342Y-196442914D01*
X205362914Y-196514342D01*
X205220057Y-196585771D01*
X205077200Y-196585771D01*
X204934342Y-196514342D01*
X204862914Y-196442914D01*
X204791485Y-196300057D01*
X204720057Y-196014342D01*
X204720057Y-195657200D01*
X204791485Y-195371485D01*
X204862914Y-195228628D01*
X204934342Y-195157200D01*
X205077200Y-195085771D01*
X206220057Y-196442914D02*
X206291485Y-196514342D01*
X206220057Y-196585771D01*
X206148628Y-196514342D01*
X206220057Y-196442914D01*
X206220057Y-196585771D01*
X207720057Y-196585771D02*
X206862914Y-196585771D01*
X207291485Y-196585771D02*
X207291485Y-195085771D01*
X207148628Y-195300057D01*
X207005771Y-195442914D01*
X206862914Y-195514342D01*
X208220057Y-197157200D02*
X208291485Y-197085771D01*
X208434342Y-196871485D01*
X208505771Y-196728628D01*
X208577200Y-196514342D01*
X208648628Y-196157200D01*
X208648628Y-195871485D01*
X208577200Y-195514342D01*
X208505771Y-195300057D01*
X208434342Y-195157200D01*
X208291485Y-194942914D01*
X208220057Y-194871485D01*
D10*
D11*
X177002200Y-191507200D02*
X285002200Y-191507200D01*
D10*
D12*
X264411485Y-193785771D02*
X263911485Y-193071485D01*
X263554342Y-193785771D02*
X263554342Y-192285771D01*
X264125771Y-192285771D01*
X264268628Y-192357200D01*
X264340057Y-192428628D01*
X264411485Y-192571485D01*
X264411485Y-192785771D01*
X264340057Y-192928628D01*
X264268628Y-193000057D01*
X264125771Y-193071485D01*
X263554342Y-193071485D01*
X265625771Y-193714342D02*
X265482914Y-193785771D01*
X265197200Y-193785771D01*
X265054342Y-193714342D01*
X264982914Y-193571485D01*
X264982914Y-193000057D01*
X265054342Y-192857200D01*
X265197200Y-192785771D01*
X265482914Y-192785771D01*
X265625771Y-192857200D01*
X265697200Y-193000057D01*
X265697200Y-193142914D01*
X264982914Y-193285771D01*
X266197200Y-192785771D02*
X266554342Y-193785771D01*
X266911485Y-192785771D01*
X267482914Y-193642914D02*
X267554342Y-193714342D01*
X267482914Y-193785771D01*
X267411485Y-193714342D01*
X267482914Y-193642914D01*
X267482914Y-193785771D01*
X267482914Y-192857200D02*
X267554342Y-192928628D01*
X267482914Y-193000057D01*
X267411485Y-192928628D01*
X267482914Y-192857200D01*
X267482914Y-193000057D01*
D10*
D11*
X178362914Y-193714342D02*
X178577200Y-193785771D01*
X178934342Y-193785771D01*
X179077200Y-193714342D01*
X179148628Y-193642914D01*
X179220057Y-193500057D01*
X179220057Y-193357200D01*
X179148628Y-193214342D01*
X179077200Y-193142914D01*
X178934342Y-193071485D01*
X178648628Y-193000057D01*
X178505771Y-192928628D01*
X178434342Y-192857200D01*
X178362914Y-192714342D01*
X178362914Y-192571485D01*
X178434342Y-192428628D01*
X178505771Y-192357200D01*
X178648628Y-192285771D01*
X179005771Y-192285771D01*
X179220057Y-192357200D01*
X179862914Y-193785771D02*
X179862914Y-192785771D01*
X179862914Y-192285771D02*
X179791485Y-192357200D01*
X179862914Y-192428628D01*
X179934342Y-192357200D01*
X179862914Y-192285771D01*
X179862914Y-192428628D01*
X180434342Y-192785771D02*
X181220057Y-192785771D01*
X180434342Y-193785771D01*
X181220057Y-193785771D01*
X182362914Y-193714342D02*
X182220057Y-193785771D01*
X181934342Y-193785771D01*
X181791485Y-193714342D01*
X181720057Y-193571485D01*
X181720057Y-193000057D01*
X181791485Y-192857200D01*
X181934342Y-192785771D01*
X182220057Y-192785771D01*
X182362914Y-192857200D01*
X182434342Y-193000057D01*
X182434342Y-193142914D01*
X181720057Y-193285771D01*
X183077200Y-193642914D02*
X183148628Y-193714342D01*
X183077200Y-193785771D01*
X183005771Y-193714342D01*
X183077200Y-193642914D01*
X183077200Y-193785771D01*
X183077200Y-192857200D02*
X183148628Y-192928628D01*
X183077200Y-193000057D01*
X183005771Y-192928628D01*
X183077200Y-192857200D01*
X183077200Y-193000057D01*
X184862914Y-193357200D02*
X185577200Y-193357200D01*
X184720057Y-193785771D02*
X185220057Y-192285771D01*
X185720057Y-193785771D01*
X186862914Y-192785771D02*
X186862914Y-193785771D01*
X186505771Y-192214342D02*
X186148628Y-193285771D01*
X187077200Y-193285771D01*
D10*
D11*
X263434342Y-196585771D02*
X263434342Y-195085771D01*
X264791485Y-196585771D02*
X264791485Y-195085771D01*
X264791485Y-196514342D02*
X264648628Y-196585771D01*
X264362914Y-196585771D01*
X264220057Y-196514342D01*
X264148628Y-196442914D01*
X264077200Y-196300057D01*
X264077200Y-195871485D01*
X264148628Y-195728628D01*
X264220057Y-195657200D01*
X264362914Y-195585771D01*
X264648628Y-195585771D01*
X264791485Y-195657200D01*
X265505771Y-196442914D02*
X265577200Y-196514342D01*
X265505771Y-196585771D01*
X265434342Y-196514342D01*
X265505771Y-196442914D01*
X265505771Y-196585771D01*
X265505771Y-195657200D02*
X265577200Y-195728628D01*
X265505771Y-195800057D01*
X265434342Y-195728628D01*
X265505771Y-195657200D01*
X265505771Y-195800057D01*
X268148628Y-196585771D02*
X267291485Y-196585771D01*
X267720057Y-196585771D02*
X267720057Y-195085771D01*
X267577200Y-195300057D01*
X267434342Y-195442914D01*
X267291485Y-195514342D01*
X269862914Y-195014342D02*
X268577200Y-196942914D01*
X271148628Y-196585771D02*
X270291485Y-196585771D01*
X270720057Y-196585771D02*
X270720057Y-195085771D01*
X270577200Y-195300057D01*
X270434342Y-195442914D01*
X270291485Y-195514342D01*
D10*
D11*
X177002200Y-187507200D02*
X285002200Y-187507200D01*
D10*
D13*
X178714580Y-188211961D02*
X179857438Y-188211961D01*
X179036009Y-190211961D02*
X179286009Y-188211961D01*
X180274104Y-190211961D02*
X180440771Y-188878628D01*
X180524104Y-188211961D02*
X180416961Y-188307200D01*
X180500295Y-188402438D01*
X180607438Y-188307200D01*
X180524104Y-188211961D01*
X180500295Y-188402438D01*
X181107438Y-188878628D02*
X181869342Y-188878628D01*
X181476485Y-188211961D02*
X181262200Y-189926247D01*
X181333628Y-190116723D01*
X181512200Y-190211961D01*
X181702676Y-190211961D01*
X182655057Y-190211961D02*
X182476485Y-190116723D01*
X182405057Y-189926247D01*
X182619342Y-188211961D01*
X184190771Y-190116723D02*
X183988390Y-190211961D01*
X183607438Y-190211961D01*
X183428866Y-190116723D01*
X183357438Y-189926247D01*
X183452676Y-189164342D01*
X183571723Y-188973866D01*
X183774104Y-188878628D01*
X184155057Y-188878628D01*
X184333628Y-188973866D01*
X184405057Y-189164342D01*
X184381247Y-189354819D01*
X183405057Y-189545295D01*
X185155057Y-190021485D02*
X185238390Y-190116723D01*
X185131247Y-190211961D01*
X185047914Y-190116723D01*
X185155057Y-190021485D01*
X185131247Y-190211961D01*
X185286009Y-188973866D02*
X185369342Y-189069104D01*
X185262200Y-189164342D01*
X185178866Y-189069104D01*
X185286009Y-188973866D01*
X185262200Y-189164342D01*
D10*
D11*
X178934342Y-185600057D02*
X178434342Y-185600057D01*
X178434342Y-186385771D02*
X178434342Y-184885771D01*
X179148628Y-184885771D01*
X179720057Y-186385771D02*
X179720057Y-185385771D01*
X179720057Y-184885771D02*
X179648628Y-184957200D01*
X179720057Y-185028628D01*
X179791485Y-184957200D01*
X179720057Y-184885771D01*
X179720057Y-185028628D01*
X180648628Y-186385771D02*
X180505771Y-186314342D01*
X180434342Y-186171485D01*
X180434342Y-184885771D01*
X181791485Y-186314342D02*
X181648628Y-186385771D01*
X181362914Y-186385771D01*
X181220057Y-186314342D01*
X181148628Y-186171485D01*
X181148628Y-185600057D01*
X181220057Y-185457200D01*
X181362914Y-185385771D01*
X181648628Y-185385771D01*
X181791485Y-185457200D01*
X181862914Y-185600057D01*
X181862914Y-185742914D01*
X181148628Y-185885771D01*
X182505771Y-186242914D02*
X182577200Y-186314342D01*
X182505771Y-186385771D01*
X182434342Y-186314342D01*
X182505771Y-186242914D01*
X182505771Y-186385771D01*
X182505771Y-185457200D02*
X182577200Y-185528628D01*
X182505771Y-185600057D01*
X182434342Y-185528628D01*
X182505771Y-185457200D01*
X182505771Y-185600057D01*
X184362914Y-186385771D02*
X184362914Y-184885771D01*
X184720057Y-184885771D01*
X184934342Y-184957200D01*
X185077200Y-185100057D01*
X185148628Y-185242914D01*
X185220057Y-185528628D01*
X185220057Y-185742914D01*
X185148628Y-186028628D01*
X185077200Y-186171485D01*
X184934342Y-186314342D01*
X184720057Y-186385771D01*
X184362914Y-186385771D01*
X185862914Y-186385771D02*
X185862914Y-185385771D01*
X185862914Y-185671485D02*
X185934342Y-185528628D01*
X186005771Y-185457200D01*
X186148628Y-185385771D01*
X186291485Y-185385771D01*
X186791485Y-186385771D02*
X186791485Y-185385771D01*
X186791485Y-184885771D02*
X186720057Y-184957200D01*
X186791485Y-185028628D01*
X186862914Y-184957200D01*
X186791485Y-184885771D01*
X186791485Y-185028628D01*
X187362914Y-185385771D02*
X187720057Y-186385771D01*
X188077200Y-185385771D01*
X189220057Y-186314342D02*
X189077200Y-186385771D01*
X188791485Y-186385771D01*
X188648628Y-186314342D01*
X188577200Y-186171485D01*
X188577200Y-185600057D01*
X188648628Y-185457200D01*
X188791485Y-185385771D01*
X189077200Y-185385771D01*
X189220057Y-185457200D01*
X189291485Y-185600057D01*
X189291485Y-185742914D01*
X188577200Y-185885771D01*
X189934342Y-186385771D02*
X189934342Y-185385771D01*
X189934342Y-185671485D02*
X190005771Y-185528628D01*
X190077200Y-185457200D01*
X190220057Y-185385771D01*
X190362914Y-185385771D01*
X190862914Y-186242914D02*
X190934342Y-186314342D01*
X190862914Y-186385771D01*
X190791485Y-186314342D01*
X190862914Y-186242914D01*
X190862914Y-186385771D01*
X191577200Y-186385771D02*
X191577200Y-184885771D01*
X191720057Y-185814342D02*
X192148628Y-186385771D01*
X192148628Y-185385771D02*
X191577200Y-185957200D01*
X192791485Y-186385771D02*
X192791485Y-185385771D01*
X192791485Y-184885771D02*
X192720057Y-184957200D01*
X192791485Y-185028628D01*
X192862914Y-184957200D01*
X192791485Y-184885771D01*
X192791485Y-185028628D01*
X194148628Y-186314342D02*
X194005771Y-186385771D01*
X193720057Y-186385771D01*
X193577200Y-186314342D01*
X193505771Y-186242914D01*
X193434342Y-186100057D01*
X193434342Y-185671485D01*
X193505771Y-185528628D01*
X193577200Y-185457200D01*
X193720057Y-185385771D01*
X194005771Y-185385771D01*
X194148628Y-185457200D01*
X195434342Y-186385771D02*
X195434342Y-185600057D01*
X195362914Y-185457200D01*
X195220057Y-185385771D01*
X194934342Y-185385771D01*
X194791485Y-185457200D01*
X195434342Y-186314342D02*
X195291485Y-186385771D01*
X194934342Y-186385771D01*
X194791485Y-186314342D01*
X194720057Y-186171485D01*
X194720057Y-186028628D01*
X194791485Y-185885771D01*
X194934342Y-185814342D01*
X195291485Y-185814342D01*
X195434342Y-185742914D01*
X196791485Y-186385771D02*
X196791485Y-184885771D01*
X196791485Y-186314342D02*
X196648628Y-186385771D01*
X196362914Y-186385771D01*
X196220057Y-186314342D01*
X196148628Y-186242914D01*
X196077200Y-186100057D01*
X196077200Y-185671485D01*
X196148628Y-185528628D01*
X196220057Y-185457200D01*
X196362914Y-185385771D01*
X196648628Y-185385771D01*
X196791485Y-185457200D01*
X197148628Y-186528628D02*
X198291485Y-186528628D01*
X198648628Y-185385771D02*
X198648628Y-186885771D01*
X198648628Y-185457200D02*
X198791485Y-185385771D01*
X199077200Y-185385771D01*
X199220057Y-185457200D01*
X199291485Y-185528628D01*
X199362914Y-185671485D01*
X199362914Y-186100057D01*
X199291485Y-186242914D01*
X199220057Y-186314342D01*
X199077200Y-186385771D01*
X198791485Y-186385771D01*
X198648628Y-186314342D01*
X200648628Y-186314342D02*
X200505771Y-186385771D01*
X200220057Y-186385771D01*
X200077200Y-186314342D01*
X200005771Y-186242914D01*
X199934342Y-186100057D01*
X199934342Y-185671485D01*
X200005771Y-185528628D01*
X200077200Y-185457200D01*
X200220057Y-185385771D01*
X200505771Y-185385771D01*
X200648628Y-185457200D01*
X201291485Y-186385771D02*
X201291485Y-184885771D01*
X201291485Y-185457200D02*
X201434342Y-185385771D01*
X201720057Y-185385771D01*
X201862914Y-185457200D01*
X201934342Y-185528628D01*
X202005771Y-185671485D01*
X202005771Y-186100057D01*
X201934342Y-186242914D01*
X201862914Y-186314342D01*
X201720057Y-186385771D01*
X201434342Y-186385771D01*
X201291485Y-186314342D01*
D10*
D11*
X177002200Y-181507200D02*
X285002200Y-181507200D01*
D10*
D11*
X178362914Y-183614342D02*
X178577200Y-183685771D01*
X178934342Y-183685771D01*
X179077200Y-183614342D01*
X179148628Y-183542914D01*
X179220057Y-183400057D01*
X179220057Y-183257200D01*
X179148628Y-183114342D01*
X179077200Y-183042914D01*
X178934342Y-182971485D01*
X178648628Y-182900057D01*
X178505771Y-182828628D01*
X178434342Y-182757200D01*
X178362914Y-182614342D01*
X178362914Y-182471485D01*
X178434342Y-182328628D01*
X178505771Y-182257200D01*
X178648628Y-182185771D01*
X179005771Y-182185771D01*
X179220057Y-182257200D01*
X179862914Y-183685771D02*
X179862914Y-182185771D01*
X180505771Y-183685771D02*
X180505771Y-182900057D01*
X180434342Y-182757200D01*
X180291485Y-182685771D01*
X180077200Y-182685771D01*
X179934342Y-182757200D01*
X179862914Y-182828628D01*
X181791485Y-183614342D02*
X181648628Y-183685771D01*
X181362914Y-183685771D01*
X181220057Y-183614342D01*
X181148628Y-183471485D01*
X181148628Y-182900057D01*
X181220057Y-182757200D01*
X181362914Y-182685771D01*
X181648628Y-182685771D01*
X181791485Y-182757200D01*
X181862914Y-182900057D01*
X181862914Y-183042914D01*
X181148628Y-183185771D01*
X183077200Y-183614342D02*
X182934342Y-183685771D01*
X182648628Y-183685771D01*
X182505771Y-183614342D01*
X182434342Y-183471485D01*
X182434342Y-182900057D01*
X182505771Y-182757200D01*
X182648628Y-182685771D01*
X182934342Y-182685771D01*
X183077200Y-182757200D01*
X183148628Y-182900057D01*
X183148628Y-183042914D01*
X182434342Y-183185771D01*
X183577200Y-182685771D02*
X184148628Y-182685771D01*
X183791485Y-182185771D02*
X183791485Y-183471485D01*
X183862914Y-183614342D01*
X184005771Y-183685771D01*
X184148628Y-183685771D01*
X184648628Y-183542914D02*
X184720057Y-183614342D01*
X184648628Y-183685771D01*
X184577200Y-183614342D01*
X184648628Y-183542914D01*
X184648628Y-183685771D01*
X184648628Y-182757200D02*
X184720057Y-182828628D01*
X184648628Y-182900057D01*
X184577200Y-182828628D01*
X184648628Y-182757200D01*
X184648628Y-182900057D01*
D10*
D12*
D10*
D11*
D10*
D11*
D10*
D11*
D10*
D11*
D10*
D11*
X197002200Y-191507200D02*
X197002200Y-194507200D01*
D10*
D11*
X261002200Y-191507200D02*
X261002200Y-198007200D01*
D14*
X175260000Y-76200000D02*
X81280000Y-76200000D01*
X81280000Y-76200000D02*
X81280000Y-127000000D01*
X81280000Y-127000000D02*
X175260000Y-127000000D01*
X175260000Y-127000000D02*
X175260000Y-76200000D01*
D15*
%TO.P,C2,1*%
%TO.N,/5V*%
X122040000Y-86602500D03*
D16*
%TO.P,C2,2*%
%TO.N,GND*%
X137040000Y-86602500D03*
%TD*%
D17*
%TO.P,VmotorIN1,1,Pin_1*%
%TO.N,Net-(C1-Pad1)*%
X144780000Y-116840000D03*
D18*
%TO.P,VmotorIN1,2,Pin_2*%
%TO.N,GND*%
X149780000Y-116840000D03*
%TD*%
D17*
%TO.P,MotorA1,1,Pin_1*%
%TO.N,Net-(MotorA1-Pad1)*%
X165100000Y-119380000D03*
D18*
%TO.P,MotorA1,2,Pin_2*%
%TO.N,Net-(MotorA1-Pad2)*%
X165100000Y-114380000D03*
%TD*%
D15*
%TO.P,C3,1*%
%TO.N,Net-(C1-Pad1)*%
X122040000Y-101842500D03*
D16*
%TO.P,C3,2*%
%TO.N,GND*%
X137040000Y-101842500D03*
%TD*%
D15*
%TO.P,C1,1*%
%TO.N,Net-(C1-Pad1)*%
X122040000Y-117082500D03*
D16*
%TO.P,C1,2*%
%TO.N,GND*%
X137040000Y-117082500D03*
%TD*%
D19*
%TO.P,Servo2,1,Pin_1*%
%TO.N,Net-(JP2-Pad11)*%
X129540000Y-93980000D03*
D20*
%TO.P,Servo2,2,Pin_2*%
%TO.N,/5V*%
X132080000Y-93980000D03*
%TO.P,Servo2,3,Pin_3*%
%TO.N,GND*%
X134620000Y-93980000D03*
%TD*%
D17*
%TO.P,MotorB1,1,Pin_1*%
%TO.N,Net-(MotorB1-Pad1)*%
X165100000Y-88900000D03*
D18*
%TO.P,MotorB1,2,Pin_2*%
%TO.N,Net-(MotorB1-Pad2)*%
X165100000Y-83900000D03*
%TD*%
D19*
%TO.P,JP1,1,Pin_1*%
%TO.N,unconnected-(JP1-Pad1)*%
X83820000Y-109220000D03*
D20*
%TO.P,JP1,2,Pin_2*%
%TO.N,unconnected-(JP1-Pad2)*%
X86360000Y-109220000D03*
%TO.P,JP1,3,Pin_3*%
%TO.N,unconnected-(JP1-Pad3)*%
X88900000Y-109220000D03*
%TO.P,JP1,4,Pin_4*%
%TO.N,unconnected-(JP1-Pad4)*%
X91440000Y-109220000D03*
%TO.P,JP1,5,Pin_5*%
%TO.N,unconnected-(JP1-Pad5)*%
X93980000Y-109220000D03*
%TO.P,JP1,6,Pin_6*%
%TO.N,unconnected-(JP1-Pad6)*%
X96520000Y-109220000D03*
%TO.P,JP1,7,Pin_7*%
%TO.N,unconnected-(JP1-Pad7)*%
X99060000Y-109220000D03*
%TO.P,JP1,8,Pin_8*%
%TO.N,unconnected-(JP1-Pad8)*%
X101600000Y-109220000D03*
%TO.P,JP1,9,Pin_9*%
%TO.N,unconnected-(JP1-Pad9)*%
X104140000Y-109220000D03*
%TO.P,JP1,10,Pin_10*%
%TO.N,unconnected-(JP1-Pad10)*%
X106680000Y-109220000D03*
%TO.P,JP1,11,Pin_11*%
%TO.N,unconnected-(JP1-Pad11)*%
X109220000Y-109220000D03*
%TO.P,JP1,12,Pin_12*%
%TO.N,/5V*%
X111760000Y-109220000D03*
%TO.P,JP1,13,Pin_13*%
%TO.N,unconnected-(JP1-Pad13)*%
X114300000Y-109220000D03*
%TO.P,JP1,14,Pin_14*%
%TO.N,GND*%
X116840000Y-109220000D03*
%TO.P,JP1,15,Pin_15*%
%TO.N,unconnected-(JP1-Pad15)*%
X119380000Y-109220000D03*
%TD*%
D19*
%TO.P,JP2,1,Pin_1*%
%TO.N,unconnected-(JP2-Pad1)*%
X83820000Y-93980000D03*
D20*
%TO.P,JP2,2,Pin_2*%
%TO.N,unconnected-(JP2-Pad2)*%
X86360000Y-93980000D03*
%TO.P,JP2,3,Pin_3*%
%TO.N,unconnected-(JP2-Pad3)*%
X88900000Y-93980000D03*
%TO.P,JP2,4,Pin_4*%
%TO.N,unconnected-(JP2-Pad4)*%
X91440000Y-93980000D03*
%TO.P,JP2,5,Pin_5*%
%TO.N,unconnected-(JP2-Pad5)*%
X93980000Y-93980000D03*
%TO.P,JP2,6,Pin_6*%
%TO.N,Net-(JP2-Pad6)*%
X96520000Y-93980000D03*
%TO.P,JP2,7,Pin_7*%
%TO.N,Net-(JP2-Pad7)*%
X99060000Y-93980000D03*
%TO.P,JP2,8,Pin_8*%
%TO.N,Net-(JP2-Pad8)*%
X101600000Y-93980000D03*
%TO.P,JP2,9,Pin_9*%
%TO.N,Net-(JP2-Pad9)*%
X104140000Y-93980000D03*
%TO.P,JP2,10,Pin_10*%
%TO.N,Net-(JP2-Pad10)*%
X106680000Y-93980000D03*
%TO.P,JP2,11,Pin_11*%
%TO.N,Net-(JP2-Pad11)*%
X109220000Y-93980000D03*
%TO.P,JP2,12,Pin_12*%
%TO.N,unconnected-(JP2-Pad12)*%
X111760000Y-93980000D03*
%TO.P,JP2,13,Pin_13*%
%TO.N,unconnected-(JP2-Pad13)*%
X114300000Y-93980000D03*
%TO.P,JP2,14,Pin_14*%
%TO.N,unconnected-(JP2-Pad14)*%
X116840000Y-93980000D03*
%TO.P,JP2,15,Pin_15*%
%TO.N,unconnected-(JP2-Pad15)*%
X119380000Y-93980000D03*
%TD*%
D17*
%TO.P,GND1,1,Pin_1*%
%TO.N,GND*%
X165100000Y-104140000D03*
D18*
%TO.P,GND1,2,Pin_2*%
X165100000Y-99140000D03*
%TD*%
D19*
%TO.P,Servo1,1,Pin_1*%
%TO.N,Net-(JP2-Pad10)*%
X129540000Y-109220000D03*
D20*
%TO.P,Servo1,2,Pin_2*%
%TO.N,/5V*%
X132080000Y-109220000D03*
%TO.P,Servo1,3,Pin_3*%
%TO.N,GND*%
X134620000Y-109220000D03*
%TD*%
D21*
%TO.P,R1,1*%
%TO.N,/5V*%
X143510000Y-91440000D03*
D22*
%TO.P,R1,2*%
%TO.N,Net-(R1-Pad2)*%
X156210000Y-91440000D03*
%TD*%
D23*
%TO.P,U1,1,AO1*%
%TO.N,Net-(MotorA1-Pad1)*%
X143745000Y-105200000D03*
%TO.P,U1,2,AO1*%
X144395000Y-105200000D03*
%TO.P,U1,3,PGND1*%
%TO.N,GND*%
X145045000Y-105200000D03*
%TO.P,U1,4,PGND1*%
X145695000Y-105200000D03*
%TO.P,U1,5,AO2*%
%TO.N,Net-(MotorA1-Pad2)*%
X146345000Y-105200000D03*
%TO.P,U1,6,AO2*%
X146995000Y-105200000D03*
%TO.P,U1,7,BO2*%
%TO.N,Net-(MotorB1-Pad2)*%
X147645000Y-105200000D03*
%TO.P,U1,8,BO2*%
X148295000Y-105200000D03*
%TO.P,U1,9,PGND2*%
%TO.N,GND*%
X148945000Y-105200000D03*
%TO.P,U1,10,PGND2*%
X149595000Y-105200000D03*
%TO.P,U1,11,BO1*%
%TO.N,Net-(MotorB1-Pad1)*%
X150245000Y-105200000D03*
%TO.P,U1,12,BO1*%
X150895000Y-105200000D03*
%TO.P,U1,13,VM2*%
%TO.N,Net-(C1-Pad1)*%
X150895000Y-98000000D03*
%TO.P,U1,14,VM3*%
X150245000Y-98000000D03*
%TO.P,U1,15,PWMB*%
%TO.N,/5V*%
X149595000Y-98000000D03*
%TO.P,U1,16,BIN2*%
%TO.N,Net-(JP2-Pad6)*%
X148945000Y-98000000D03*
%TO.P,U1,17,BIN1*%
%TO.N,Net-(JP2-Pad7)*%
X148295000Y-98000000D03*
%TO.P,U1,18,GND*%
%TO.N,GND*%
X147645000Y-98000000D03*
%TO.P,U1,19,STBY*%
%TO.N,Net-(R1-Pad2)*%
X146995000Y-98000000D03*
%TO.P,U1,20,VCC*%
%TO.N,/5V*%
X146345000Y-98000000D03*
%TO.P,U1,21,AIN1*%
%TO.N,Net-(JP2-Pad9)*%
X145695000Y-98000000D03*
%TO.P,U1,22,AIN2*%
%TO.N,Net-(JP2-Pad8)*%
X145045000Y-98000000D03*
%TO.P,U1,23,PWMA*%
%TO.N,/5V*%
X144395000Y-98000000D03*
%TO.P,U1,24,VM1*%
%TO.N,Net-(C1-Pad1)*%
X143745000Y-98000000D03*
%TD*%
D24*
%TO.N,/5V*%
X149595000Y-98000000D02*
X149595000Y-96799700D01*
X113743200Y-110395300D02*
X112935300Y-109587400D01*
X132080000Y-93980000D02*
X133068700Y-93980000D01*
X146345000Y-99087700D02*
X146232400Y-99200300D01*
X144710500Y-95165200D02*
X146345000Y-96799700D01*
X130904700Y-110028000D02*
X130537400Y-110395300D01*
X112935300Y-109587400D02*
X112935300Y-109220000D01*
X133068700Y-94107000D02*
X134126900Y-95165200D01*
X132080000Y-109220000D02*
X130904700Y-109220000D01*
X149595000Y-96799700D02*
X144235300Y-91440000D01*
X144235300Y-91440000D02*
X143510000Y-91440000D01*
X133068700Y-93980000D02*
X133068700Y-94107000D01*
X134126900Y-95165200D02*
X144710500Y-95165200D01*
X146345000Y-98000000D02*
X146345000Y-99087700D01*
X111760000Y-109220000D02*
X112935300Y-109220000D01*
X144395000Y-98000000D02*
X144395000Y-99200300D01*
X146345000Y-98000000D02*
X146345000Y-96799700D01*
X130904700Y-109220000D02*
X130904700Y-110028000D01*
X146232400Y-99200300D02*
X144395000Y-99200300D01*
X130537400Y-110395300D02*
X113743200Y-110395300D01*
%TO.N,GND*%
X118823200Y-108044700D02*
X118015300Y-108852600D01*
X144825300Y-93980000D02*
X147645000Y-96799700D01*
X145282200Y-103999700D02*
X145695000Y-103999700D01*
X149057600Y-103999700D02*
X149595000Y-103999700D01*
X148945000Y-104112300D02*
X149057600Y-103999700D01*
X145045000Y-104599800D02*
X145045000Y-104236900D01*
X145045000Y-104236900D02*
X145282200Y-103999700D01*
X145695000Y-105200000D02*
X145695000Y-103999700D01*
X148945000Y-105200000D02*
X148945000Y-104112300D01*
X144547700Y-103502400D02*
X138111900Y-103502400D01*
X116840000Y-109220000D02*
X118015300Y-109220000D01*
X148347800Y-103515100D02*
X146179600Y-103515100D01*
X138111900Y-104552800D02*
X134620000Y-108044700D01*
X147645000Y-98000000D02*
X147645000Y-96799700D01*
X137040000Y-101842500D02*
X137040000Y-102673600D01*
X145045000Y-104236900D02*
X145045000Y-103999700D01*
X134620000Y-93980000D02*
X144825300Y-93980000D01*
X134620000Y-108044700D02*
X118823200Y-108044700D01*
X161214400Y-106400300D02*
X149595000Y-106400300D01*
X134620000Y-108157300D02*
X134620000Y-108044700D01*
X138111900Y-103502400D02*
X138111900Y-104552800D01*
X149595000Y-105200000D02*
X149595000Y-103999700D01*
X145045000Y-105200000D02*
X145045000Y-104599800D01*
X146179600Y-103515100D02*
X145695000Y-103999700D01*
X149595000Y-105200000D02*
X149595000Y-106400300D01*
X145045000Y-103999700D02*
X144547700Y-103502400D01*
X134620000Y-109220000D02*
X134620000Y-108157300D01*
X165100000Y-104140000D02*
X163474700Y-104140000D01*
X148945000Y-104112300D02*
X148347800Y-103515100D01*
X163474700Y-104140000D02*
X161214400Y-106400300D01*
X137283100Y-102673600D02*
X138111900Y-103502400D01*
X118015300Y-108852600D02*
X118015300Y-109220000D01*
X137040000Y-102673600D02*
X137283100Y-102673600D01*
%TO.N,Net-(JP2-Pad6)*%
X141257200Y-91854900D02*
X99453100Y-91854900D01*
X97695300Y-93612700D02*
X97695300Y-93980000D01*
X148945000Y-98000000D02*
X148945000Y-96799700D01*
X148945000Y-96799700D02*
X145158200Y-93012900D01*
X142415200Y-93012900D02*
X141257200Y-91854900D01*
X145158200Y-93012900D02*
X142415200Y-93012900D01*
X96520000Y-93980000D02*
X97695300Y-93980000D01*
X99453100Y-91854900D02*
X97695300Y-93612700D01*
%TO.N,Net-(JP2-Pad7)*%
X99060000Y-93980000D02*
X100235300Y-93980000D01*
X148295000Y-98000000D02*
X148295000Y-96799700D01*
X100235300Y-93612700D02*
X101527400Y-92320600D01*
X101527400Y-92320600D02*
X140860700Y-92320600D01*
X144958500Y-93463200D02*
X148295000Y-96799700D01*
X140860700Y-92320600D02*
X142003300Y-93463200D01*
X142003300Y-93463200D02*
X144958500Y-93463200D01*
X100235300Y-93980000D02*
X100235300Y-93612700D01*
%TO.N,Net-(JP2-Pad8)*%
X101600000Y-93980000D02*
X102775300Y-93980000D01*
X102775300Y-94347300D02*
X102775300Y-93980000D01*
X145045000Y-96799700D02*
X105227700Y-96799700D01*
X105227700Y-96799700D02*
X102775300Y-94347300D01*
X145045000Y-98000000D02*
X145045000Y-96799700D01*
%TO.N,Net-(JP2-Pad9)*%
X107023900Y-96055900D02*
X144951200Y-96055900D01*
X104140000Y-93980000D02*
X105315300Y-93980000D01*
X105315300Y-93980000D02*
X105315300Y-94347300D01*
X145695000Y-98000000D02*
X145695000Y-96799700D01*
X144951200Y-96055900D02*
X145695000Y-96799700D01*
X105315300Y-94347300D02*
X107023900Y-96055900D01*
%TO.N,Net-(JP2-Pad11)*%
X110395300Y-93612700D02*
X111203300Y-92804700D01*
X129540000Y-93980000D02*
X128364700Y-93980000D01*
X127189400Y-92804700D02*
X128364700Y-93980000D01*
X110395300Y-93980000D02*
X110395300Y-93612700D01*
X111203300Y-92804700D02*
X127189400Y-92804700D01*
X109220000Y-93980000D02*
X110395300Y-93980000D01*
%TO.N,Net-(C1-Pad1)*%
X123365300Y-117082500D02*
X124748100Y-118465300D01*
X151510700Y-99676400D02*
X157777100Y-93410000D01*
X150895000Y-94572500D02*
X150895000Y-96799700D01*
X125531400Y-99676400D02*
X143745000Y-99676400D01*
X123365300Y-101842500D02*
X125531400Y-99676400D01*
X157777100Y-93410000D02*
X157777100Y-90800700D01*
X122040000Y-117082500D02*
X123365300Y-117082500D01*
X122040000Y-101842500D02*
X123365300Y-101842500D01*
X156860000Y-89883600D02*
X155583900Y-89883600D01*
X155583900Y-89883600D02*
X150895000Y-94572500D01*
X143745000Y-98600100D02*
X143745000Y-99676400D01*
X150245000Y-98000000D02*
X150245000Y-96799700D01*
X157777100Y-90800700D02*
X156860000Y-89883600D01*
X143745000Y-99676400D02*
X151510700Y-99676400D01*
X124748100Y-118465300D02*
X141529400Y-118465300D01*
X150895000Y-98000000D02*
X150895000Y-96799700D01*
X144780000Y-116840000D02*
X143154700Y-116840000D01*
X141529400Y-118465300D02*
X143154700Y-116840000D01*
X150245000Y-96799700D02*
X150895000Y-96799700D01*
X143745000Y-98000000D02*
X143745000Y-98600100D01*
%TO.N,Net-(MotorA1-Pad1)*%
X143745000Y-105200000D02*
X143745000Y-103999700D01*
X143745000Y-105200000D02*
X143745000Y-106400300D01*
X156724700Y-119380000D02*
X165100000Y-119380000D01*
X143745000Y-106400300D02*
X156724700Y-119380000D01*
X144395000Y-105200000D02*
X144395000Y-103999700D01*
X144395000Y-103999700D02*
X143745000Y-103999700D01*
%TO.N,Net-(MotorA1-Pad2)*%
X146345000Y-106400300D02*
X154324700Y-114380000D01*
X146995000Y-105200000D02*
X146995000Y-103999700D01*
X146345000Y-105200000D02*
X146345000Y-103999700D01*
X146345000Y-105200000D02*
X146345000Y-106400300D01*
X154324700Y-114380000D02*
X165100000Y-114380000D01*
X146995000Y-103999700D02*
X146345000Y-103999700D01*
%TO.N,Net-(MotorB1-Pad2)*%
X147645000Y-105200000D02*
X147645000Y-106400300D01*
X148295000Y-105800100D02*
X148295000Y-106163100D01*
X165530400Y-106855300D02*
X166725400Y-105660300D01*
X148295000Y-106163100D02*
X148057800Y-106400300D01*
X166725400Y-85525400D02*
X165100000Y-83900000D01*
X166725400Y-105660300D02*
X166725400Y-85525400D01*
X148750000Y-106855300D02*
X165530400Y-106855300D01*
X148295000Y-105200000D02*
X148295000Y-105800100D01*
X148057800Y-106400300D02*
X147645000Y-106400300D01*
X148295000Y-106400300D02*
X148750000Y-106855300D01*
X148295000Y-106163100D02*
X148295000Y-106400300D01*
%TO.N,Net-(MotorB1-Pad1)*%
X150895000Y-105200000D02*
X150895000Y-104599800D01*
X164969500Y-90525300D02*
X165100000Y-90525300D01*
X150895000Y-104599800D02*
X150895000Y-103999700D01*
X150895000Y-103999700D02*
X150245000Y-103999700D01*
X150245000Y-105200000D02*
X150245000Y-103999700D01*
X165100000Y-88900000D02*
X165100000Y-90525300D01*
X150895000Y-104599800D02*
X164969500Y-90525300D01*
%TO.N,Net-(R1-Pad2)*%
X156210000Y-94264000D02*
X156210000Y-91440000D01*
X146995000Y-99200300D02*
X151273700Y-99200300D01*
X151273700Y-99200300D02*
X156210000Y-94264000D01*
X146995000Y-98000000D02*
X146995000Y-99200300D01*
%TD*%
M02*
